<?xml version="1.0" encoding="UTF-8" standalone="no"?>
<svg
   xmlns:osb="http://www.openswatchbook.org/uri/2009/osb"
   xmlns:dc="http://purl.org/dc/elements/1.1/"
   xmlns:cc="http://creativecommons.org/ns#"
   xmlns:rdf="http://www.w3.org/1999/02/22-rdf-syntax-ns#"
   xmlns:svg="http://www.w3.org/2000/svg"
   xmlns="http://www.w3.org/2000/svg"
   xmlns:sodipodi="http://sodipodi.sourceforge.net/DTD/sodipodi-0.dtd"
   xmlns:inkscape="http://www.inkscape.org/namespaces/inkscape"
   version="1.1"
   viewBox="0 0 1327 790"
   width="1327.0pt"
   height="790.0pt"
   id="svg12"
   sodipodi:docname="inverted_v2.svg"
   inkscape:version="0.92.4 (5da689c313, 2019-01-14)"
   enable-background="new">
  <metadata
     id="metadata18">
    <rdf:RDF>
      <cc:Work
         rdf:about="">
        <dc:format>image/svg+xml</dc:format>
        <dc:type
           rdf:resource="http://purl.org/dc/dcmitype/StillImage" />
      </cc:Work>
    </rdf:RDF>
  </metadata>
  <defs
     id="defs16">
    <linearGradient
       id="linearGradient2293"
       osb:paint="solid">
      <stop
         style="stop-color:#000000;stop-opacity:1;"
         offset="0"
         id="stop2291" />
    </linearGradient>
    <linearGradient
       id="linearGradient2287"
       osb:paint="solid">
      <stop
         style="stop-color:#ffffff;stop-opacity:1;"
         offset="0"
         id="stop2285" />
    </linearGradient>
    <linearGradient
       id="linearGradient2279"
       osb:paint="solid">
      <stop
         style="stop-color:#ffffff;stop-opacity:1;"
         offset="0"
         id="stop2277" />
    </linearGradient>
  </defs>
  <sodipodi:namedview
     pagecolor="#ffffff"
     bordercolor="#666666"
     borderopacity="1"
     objecttolerance="10"
     gridtolerance="10"
     guidetolerance="10"
     inkscape:pageopacity="0"
     inkscape:pageshadow="2"
     inkscape:window-width="1920"
     inkscape:window-height="1027"
     id="namedview14"
     showgrid="false"
     inkscape:zoom="0.64204974"
     inkscape:cx="851.64454"
     inkscape:cy="537.20018"
     inkscape:window-x="-8"
     inkscape:window-y="10"
     inkscape:window-maximized="1"
     inkscape:current-layer="svg12" />
  <path
     style="display:inline;fill:#0ab7fb;stroke-width:1.33333337;fill-opacity:1"
     d="M 985 0 C 983.76 4.9066668 981.66719 9.7061196 979.86719 14.439453 C 927.74719 150.15946 875.75961 285.98635 823.59961 421.67969 C 820.65294 418.83969 817.94724 415.79909 815.25391 412.73242 C 797.65391 392.95909 780.1468 373.1074 762.4668 353.41406 C 736.61346 385.25406 711.09271 417.41432 685.35938 449.34766 C 619.94604 530.97433 554.40034 612.49281 489.01367 694.13281 C 483.68034 690.93281 478.57339 687.4006 473.38672 683.94727 C 437.84005 660.26726 402.26729 636.533 366.64062 612.98633 C 247.97395 754.78633 129.37344 896.87976 10.773438 1038.7598 C 7.2667707 1042.9864 3.7733334 1047.1992 0 1051.1992 L 0 1051.7598 C 9.4133336 1052.9331 18.586666 1051.426 28 1051.666 C 58.226668 1051.746 88.439348 1051.4942 118.66602 1051.5742 C 144.42602 1051.0009 170.20094 1051.6791 195.96094 1051.1191 C 242.21427 1051.2658 288.41268 1050.7462 334.66602 1050.9062 C 398.63935 1050.4662 462.67935 1050.76 526.66602 1050.6934 C 552.87935 1050.3334 579.12065 1050.32 605.33398 1050.6934 C 711.70732 1050.56 817.64 1050.8942 924 1051.5742 C 940.89333 1051.8009 957.79935 1051.2932 974.66602 1052.2266 C 1027.146 1052.3066 1079.56 1052.8536 1132 1052.9336 C 1153.8667 1053.4669 1175.7876 1052.7207 1197.6543 1053.334 L 1769.334 1053.334 L 1769.334 1051.373 C 1730.7206 972.79971 1692.3475 894.06578 1653.8809 815.42578 C 1631.4942 769.95911 1609.4933 724.25258 1586.9199 678.89258 C 1570.7466 698.74591 1554.8258 718.8007 1538.7324 738.7207 C 1535.0658 743.2407 1531.6537 747.78641 1527.707 752.06641 C 1452.107 592.4264 1376.5726 432.66675 1300.8926 273.08008 C 1266.7326 298.54675 1233.066 324.74698 1198.9727 350.32031 C 1127.8927 233.58698 1056.7734 116.78667 985.77344 0 L 985 0 z M 992.75391 100.48828 C 993.23391 100.57828 993.65367 100.95328 994.01367 101.61328 C 1059.227 207.31995 1124.4143 313.05276 1189.6543 418.74609 C 1221.4543 395.61276 1252.8662 371.87919 1284.5195 348.50586 C 1287.1062 353.21253 1289.3867 358.0806 1291.6934 362.94727 C 1365.3467 517.73394 1439.0664 672.49424 1512.7598 827.26758 C 1515.5064 833.05424 1518.0925 838.79945 1521.1191 844.43945 C 1540.7058 819.95945 1559.8395 795.0673 1579.5195 770.64062 C 1604.8929 819.7073 1630.0396 868.91906 1655.293 918.03906 C 1671.4796 949.74573 1688.066 981.3198 1703.9727 1013.1465 C 1661.1193 965.5998 1618.7059 917.42617 1575.8926 869.82617 C 1558.2659 889.37284 1541.1733 909.41401 1523.6133 929.02734 C 1520.6799 924.56068 1518.0534 919.90596 1515.3867 915.2793 C 1423.5334 757.39929 1331.6525 599.5343 1239.8125 441.6543 C 1219.4125 449.94763 1199.2395 458.81307 1178.8262 467.06641 C 1128.8395 408.0264 1079.1461 348.69276 1029.0527 289.74609 C 1018.2527 308.19943 1008.2394 327.11977 997.74609 345.75977 C 915.09276 494.6531 832.45412 643.56013 749.80078 792.4668 C 747.76078 796.1868 745.81414 799.9074 743.49414 803.41406 C 756.16081 746.48073 769.37323 689.56097 782.22656 632.6543 C 783.18656 628.04096 784.77273 623.36096 785.05273 618.6543 C 785.17273 617.16096 783.48003 615.8143 782.69336 614.6543 C 764.84003 593.96096 747.26604 573.00099 729.35938 552.34766 C 655.0927 634.85433 581.04018 717.58682 506.85352 800.16016 C 503.81352 803.30682 501.13406 807.56018 497.41406 809.85352 C 462.76073 798.89352 427.9063 787.31948 393.29297 776.13281 C 388.79964 779.57281 384.45273 783.18576 380.05273 786.73242 C 287.7994 861.58576 195.53297 936.42627 103.29297 1011.293 C 101.31964 1012.8796 99.280833 1014.3741 97.1875 1015.8008 C 99.6675 1012.5074 102.34667 1009.4807 105 1006.334 C 196.21334 898.92063 287.38661 791.46641 378.61328 684.06641 C 417.26662 708.63974 455.68073 733.66581 494.41406 758.11914 C 584.44073 647.97247 674.50747 537.81397 764.49414 427.64062 C 770.60081 433.00064 775.99909 439.17359 781.73242 444.93359 C 796.94576 460.82693 812.42635 476.45365 827.67969 492.32031 C 832.22635 497.00031 836.59911 501.80083 841.42578 506.1875 C 844.14578 499.6275 846.46599 492.95964 848.97266 486.29297 C 895.45266 360.8263 942.00013 235.38625 988.4668 109.90625 C 989.7068 106.82625 990.52057 103.33414 992.25391 100.49414 C 992.42724 100.46084 992.59391 100.45838 992.75391 100.48828 z "
     transform="scale(0.74999998)"
     id="path4" />
</svg>
