<?xml version="1.0" encoding="UTF-8" standalone="no"?>
<svg
   xmlns:dc="http://purl.org/dc/elements/1.1/"
   xmlns:cc="http://creativecommons.org/ns#"
   xmlns:rdf="http://www.w3.org/1999/02/22-rdf-syntax-ns#"
   xmlns:svg="http://www.w3.org/2000/svg"
   xmlns="http://www.w3.org/2000/svg"
   xmlns:sodipodi="http://sodipodi.sourceforge.net/DTD/sodipodi-0.dtd"
   xmlns:inkscape="http://www.inkscape.org/namespaces/inkscape"
   version="1.1"
   viewBox="0 0 1312 799"
   width="1312.0pt"
   height="799.0pt"
   id="svg10"
   sodipodi:docname="regular_v2.svg"
   inkscape:version="0.92.4 (5da689c313, 2019-01-14)">
  <metadata
     id="metadata16">
    <rdf:RDF>
      <cc:Work
         rdf:about="">
        <dc:format>image/svg+xml</dc:format>
        <dc:type
           rdf:resource="http://purl.org/dc/dcmitype/StillImage" />
      </cc:Work>
    </rdf:RDF>
  </metadata>
  <defs
     id="defs14" />
  <sodipodi:namedview
     pagecolor="#ffffff"
     bordercolor="#666666"
     borderopacity="1"
     objecttolerance="10"
     gridtolerance="10"
     guidetolerance="10"
     inkscape:pageopacity="0"
     inkscape:pageshadow="2"
     inkscape:window-width="1920"
     inkscape:window-height="1027"
     id="namedview12"
     showgrid="false"
     inkscape:zoom="0.16234756"
     inkscape:cx="874.66667"
     inkscape:cy="532.66667"
     inkscape:window-x="-8"
     inkscape:window-y="10"
     inkscape:window-maximized="1"
     inkscape:current-layer="svg10" />
  <path
     d="m 700.05,0 h 0.37 c 54.7,89.1 109.6,178.11 164.45,267.12 26.49,-19.42 52.64,-39.37 79.2,-58.67 2.84,5.08 5.13,10.51 7.68,15.75 63.16,132.81 126.24,265.71 189.47,398.49 4.04,-4.47 7.58,-9.43 11.36,-14.12 12.52,-15.79 24.81,-31.77 37.47,-47.45 14.43,27.6 28.46,55.43 42.72,83.11 23.86,46.49 47.66,93 71.52,139.48 2.51,4.86 4.86,9.78 7.71,14.45 V 799 h -0.17 c -38.78,-52.47 -77.66,-104.91 -116.46,-157.37 -2.67,-3.58 -5.25,-7.28 -8.1,-10.68 -11.92,17.19 -23.8,34.41 -35.71,51.61 -2.76,3.94 -5.38,8 -8.34,11.76 -78.93,-135.68 -157.73,-271.58 -236.64,-407.29 -1.88,0.56 -3.71,1.26 -5.52,2 -13.82,5.92 -27.73,11.61 -41.55,17.54 -1.23,0.43 -2.76,1.3 -4.08,1.06 -2.07,-1.94 -3.8,-4.27 -5.63,-6.44 -39.66,-47.08 -79.31,-94.21 -119,-141.27 -3.7,6.02 -6.89,12.35 -10.4,18.48 -73.68,132.98 -147.36,265.97 -221.05,398.95 -2.38,4.26 -4.65,8.61 -7.23,12.76 0.97,-4.17 2.33,-8.28 3.58,-12.37 12.85,-41.88 25.61,-83.79 38.49,-125.66 0.69,-2.53 1.95,-5.22 1.99,-7.84 -2.87,-3.88 -6.31,-7.33 -9.36,-11.07 -15.39,-17.85 -30.59,-35.86 -46.05,-53.65 -10.57,11.18 -20.61,22.91 -30.96,34.3 C 395.74,474.08 341.77,534.53 287.63,594.73 258.45,585.45 229.4,575.64 200.19,566.43 135.22,641.38 70.32,716.4 5.35,791.37 3.58,793.5 1.25,795.51 0,798 v -1.41 c 0.94,-1.31 1.89,-2.61 2.76,-3.97 C 64.5,691.47 126.16,590 187.97,488.94 c 2.96,1.71 5.81,3.55 8.67,5.42 25.57,16.43 51.14,32.85 76.72,49.28 3.73,2.4 7.4,4.87 11.26,7.08 75.15,-92.07 150.29,-184.32 225.52,-276.32 8.66,8.49 16.83,17.48 25.39,26.07 12.91,13.15 25.51,26.6 38.52,39.65 2.42,-5.41 4.21,-11.12 6.35,-16.65 C 620.26,215.65 660.25,107.85 700.05,0 Z"
     id="path4"
     inkscape:connector-curvature="0"
     style="display:inline;fill:#0ab7fb;fill-opacity:1" />
</svg>
